# This file uses centimeters as units for non-parametric coordinates.

mtllib lovebox.mtl
g default
v -0.621425 -0.000000 0.878027
v 1.207091 -0.000000 0.893581
v -0.621425 1.547723 0.878027
v 1.198044 1.582616 0.878027
v -0.621425 1.547723 -1.433284
v 1.198044 1.558813 -1.433284
v -0.621425 -0.000000 -1.433284
v 1.213589 -0.000000 -1.433284
g topoSymmetrySet
v -0.621425 1.547723 -0.277629
g default
v 1.198044 1.558813 -0.277629
v 1.183652 -0.000000 -0.277629
v -0.621425 -0.000000 -0.277629
v -0.621425 1.396592 0.878027
v -0.621425 1.361699 -0.277629
v -0.621425 1.361699 -1.433284
v 1.198044 1.396592 -1.433284
v 1.198044 1.396592 -0.277629
v 1.198044 1.396592 0.878027
v -0.621425 1.292183 0.878027
v 1.198044 1.292183 0.878027
v 1.198044 1.292183 -0.277629
v 1.198044 1.292183 -1.433284
v -0.621425 1.257290 -1.433284
v -0.621425 1.257290 -0.277629
v 0.281113 -0.000000 0.878027
v 0.281113 -0.000000 -0.277629
v 0.281113 -0.000000 -1.433284
v 0.281113 1.292183 -1.433284
v 0.281113 1.396592 -1.433284
v 0.281113 1.582616 -1.433284
v 0.281113 1.582616 -0.277629
v 0.281113 1.582616 0.878027
v 0.281113 1.396592 0.878027
v 0.281113 1.292183 0.878027
v 0.551875 -0.000000 -0.277629
v 0.551875 -0.000000 0.878027
v 0.517544 1.310647 0.878027
v 0.517544 1.378128 0.878027
v 0.551875 1.582616 0.878027
v 0.551875 1.582616 -0.277629
v 0.551875 1.582616 -1.433284
v 0.517544 1.378128 -1.433284
v 0.517544 1.310647 -1.433284
v 0.551875 -0.000000 -1.433284
v 0.010352 -0.000000 0.878027
v 0.010352 -0.000000 -0.277629
v 0.010352 -0.000000 -1.433284
v 0.044682 1.310647 -1.433284
v 0.044682 1.378128 -1.433284
v 0.010352 1.582616 -1.433284
g topoSymmetrySet
v 0.010352 1.582616 -0.277629
g default
v 0.010352 1.582616 0.878027
v 0.044682 1.378128 0.878027
v 0.044682 1.310647 0.878027
v 0.037428 -0.000000 -0.277629
v 0.037428 0.000000 0.878027
v 0.050002 1.299526 0.878027
v 0.050002 1.389250 0.878027
v 0.037428 1.582616 0.878027
v 0.037428 1.582616 -0.277629
v 0.037428 1.582616 -1.433284
v 0.050002 1.389250 -1.433284
v 0.050002 1.299526 -1.433284
v 0.037428 0.000000 -1.433284
v 0.524799 -0.000000 0.878027
v 0.524799 0.000000 -0.277629
v 0.524799 -0.000000 -1.433284
v 0.512225 1.299526 -1.433284
v 0.512225 1.389250 -1.433284
v 0.524799 1.582616 -1.433284
v 0.524799 1.582616 -0.277629
v 0.524799 1.582616 0.878027
v 0.512225 1.389250 0.878027
v 0.512225 1.299526 0.878027
v 0.061796 -0.000000 -0.277629
v 0.061796 0.000000 0.878027
v 0.061796 1.292183 0.878027
v 0.061796 1.396592 0.878027
v 0.061796 1.582616 0.878027
v 0.061796 1.582616 -0.277629
v 0.061796 1.582616 -1.433284
v 0.061796 1.396592 -1.433284
v 0.061796 1.292183 -1.433284
v 0.061796 0.000000 -1.433284
v 0.500430 -0.000000 0.878027
v 0.500430 0.000000 -0.277629
v 0.500430 -0.000000 -1.433284
v 0.500430 1.292183 -1.433284
v 0.500430 1.396592 -1.433284
v 0.500430 1.582616 -1.433284
v 0.500430 1.582616 -0.277629
v 0.500430 1.582616 0.878027
v 0.500430 1.396592 0.878027
v 0.500430 1.292183 0.878027
v 0.517531 1.310647 -0.106127
v 0.517531 1.378128 -0.106127
v 0.512218 1.389250 -0.106127
v 0.512218 1.299526 -0.106127
v 0.050008 1.299526 -0.106127
v 0.050008 1.389250 -0.106127
v 0.044695 1.378128 -0.106127
v 0.044695 1.310647 -0.106127
v 0.061796 1.292183 -0.106127
v 0.061796 1.396592 -0.106127
v 0.500430 1.396592 -0.106127
v 0.500430 1.292183 -0.106127
v 0.281113 1.396592 -0.106127
v 0.281113 1.292183 -0.106127
v 0.517553 1.378128 -0.449130
v 0.517553 1.310647 -0.449130
v 0.512226 1.299526 -0.449130
v 0.512226 1.389250 -0.449130
v 0.050001 1.389250 -0.449130
v 0.050001 1.299526 -0.449130
v 0.044673 1.310647 -0.449130
v 0.044673 1.378128 -0.449130
v 0.061800 1.396592 -0.449130
v 0.061800 1.292183 -0.449130
v 0.500426 1.292183 -0.449130
v 0.500426 1.396592 -0.449130
v 0.281113 1.292183 -0.449130
v 0.281113 1.396592 -0.449130
v -0.611794 0.775310 0.878027
v 0.030950 0.786388 0.878027
v 0.044972 0.779715 0.878027
v 0.061796 0.775310 0.878027
v 0.281113 0.775310 0.878027
v 0.500430 0.775310 0.878027
v 0.517254 0.779715 0.878027
v 0.531276 0.786388 0.878027
v 1.183652 0.775310 0.878027
v 1.183652 0.775310 -0.277629
v 1.183652 0.775310 -1.433284
v 0.531276 0.786388 -1.433284
v 0.517254 0.779715 -1.433284
v 0.500430 0.775310 -1.433284
v 0.281113 0.775310 -1.433284
v 0.061796 0.775310 -1.433284
v 0.044972 0.779715 -1.433284
v 0.030950 0.786388 -1.433284
v -0.611794 0.740417 -1.433284
v -0.611794 0.775310 -0.277629
vt 0.332574 0.500047
vt 0.332574 0.237779
vt 0.668335 0.729951
vt 0.332574 0.729952
vt 0.332574 0.500000
vt 0.668335 0.500000
vt 0.668335 0.729904
vt 0.332574 0.729905
vt 0.668335 0.992126
vt 0.332574 0.992126
vt 0.930557 0.500001
vt 0.930556 0.729905
vt 0.070353 0.500000
vt 0.070353 0.729905
vt 0.668335 0.237779
vt 0.668335 0.500047
vt 0.500455 0.729905
vt 0.500455 0.992126
vt 0.500455 0.729952
vt 0.500455 0.237779
vt 0.500455 0.500047
vt 0.500455 0.500000
vt 0.668335 0.702881
vt 0.500455 0.702881
vt 0.332574 0.702881
vt 0.070353 0.702881
vt 0.668335 0.702928
vt 0.500455 0.702928
vt 0.930556 0.702882
vt 0.332574 0.702928
vt 0.668335 0.687714
vt 0.930556 0.687714
vt 0.332574 0.687761
vt 0.500455 0.687761
vt 0.070353 0.687714
vt 0.668335 0.687761
vt 0.332574 0.687714
vt 0.500455 0.687714
vt 0.799446 0.500000
vt 0.668335 0.368889
vt 0.500455 0.368889
vt 0.332574 0.368889
vt 0.201464 0.500000
vt 0.201463 0.687714
vt 0.201463 0.702881
vt 0.201463 0.729905
vt 0.332574 0.861015
vt 0.500455 0.861015
vt 0.668335 0.861015
vt 0.799446 0.729905
vt 0.799446 0.702881
vt 0.799446 0.687714
vt 0.500455 0.329556
vt 0.838779 0.500000
vt 0.668335 0.329556
vt 0.838779 0.687714
vt 0.838779 0.702881
vt 0.668335 0.900348
vt 0.838779 0.729905
vt 0.500455 0.900348
vt 0.162130 0.729905
vt 0.332574 0.900349
vt 0.162130 0.702881
vt 0.162130 0.687714
vt 0.332574 0.329556
vt 0.162130 0.500000
vt 0.760113 0.500000
vt 0.668335 0.408222
vt 0.500455 0.408222
vt 0.332574 0.408223
vt 0.240797 0.500000
vt 0.240797 0.687714
vt 0.240797 0.702881
vt 0.240797 0.729905
vt 0.332574 0.821682
vt 0.500455 0.821682
vt 0.668335 0.821682
vt 0.760113 0.729905
vt 0.760113 0.702881
vt 0.760113 0.687714
vt 0.500455 0.404289
vt 0.764046 0.500000
vt 0.668335 0.404289
vt 0.764046 0.687714
vt 0.764046 0.702881
vt 0.668335 0.825615
vt 0.764046 0.729905
vt 0.500455 0.825615
vt 0.236863 0.729905
vt 0.332574 0.825615
vt 0.236863 0.702881
vt 0.236863 0.687714
vt 0.332574 0.404289
vt 0.236863 0.500000
vt 0.834846 0.500000
vt 0.668335 0.333489
vt 0.500455 0.333489
vt 0.332574 0.333490
vt 0.166064 0.500000
vt 0.166064 0.687714
vt 0.166064 0.702881
vt 0.166064 0.729905
vt 0.332574 0.896415
vt 0.500455 0.896415
vt 0.668335 0.896415
vt 0.834846 0.729905
vt 0.834846 0.702881
vt 0.834846 0.687714
vt 0.500455 0.400749
vt 0.767586 0.500000
vt 0.668335 0.400749
vt 0.767586 0.687714
vt 0.767586 0.702881
vt 0.668335 0.829155
vt 0.767586 0.729905
vt 0.500455 0.829155
vt 0.233323 0.729905
vt 0.332574 0.829155
vt 0.233323 0.702881
vt 0.233323 0.687714
vt 0.332574 0.400749
vt 0.233323 0.500000
vt 0.831306 0.500000
vt 0.668335 0.337029
vt 0.500455 0.337029
vt 0.332574 0.337030
vt 0.169604 0.500000
vt 0.169604 0.687714
vt 0.169604 0.702881
vt 0.169604 0.729905
vt 0.332574 0.892875
vt 0.500455 0.892875
vt 0.668335 0.892875
vt 0.831306 0.729905
vt 0.831306 0.702881
vt 0.831306 0.687714
vt 0.838779 0.687714
vt 0.838779 0.702881
vt 0.834846 0.702881
vt 0.834846 0.687714
vt 0.162130 0.702881
vt 0.162130 0.687714
vt 0.166064 0.687714
vt 0.166064 0.702881
vt 0.236863 0.687714
vt 0.240797 0.687714
vt 0.240797 0.702881
vt 0.236863 0.702881
vt 0.764046 0.702881
vt 0.760113 0.702881
vt 0.760113 0.687714
vt 0.764046 0.687714
vt 0.767586 0.702881
vt 0.767586 0.687714
vt 0.233323 0.687714
vt 0.233323 0.702881
vt 0.169604 0.687714
vt 0.169604 0.702881
vt 0.831306 0.702881
vt 0.831306 0.687714
vt 0.799446 0.702881
vt 0.799446 0.687714
vt 0.201463 0.687714
vt 0.201463 0.702881
vt 0.668335 0.612628
vt 0.760113 0.612628
vt 0.764046 0.612628
vt 0.767586 0.612628
vt 0.799446 0.612628
vt 0.831306 0.612629
vt 0.834846 0.612629
vt 0.838779 0.612629
vt 0.930557 0.612629
vt 0.332574 0.612675
vt 0.500455 0.612675
vt 0.070353 0.612628
vt 0.668335 0.612675
vt 0.162130 0.612628
vt 0.166064 0.612628
vt 0.169604 0.612628
vt 0.201464 0.612628
vt 0.233323 0.612628
vt 0.236863 0.612628
vt 0.240797 0.612628
vt 0.332574 0.612628
vt 0.500455 0.612628
vn -0.000001 0.000000 1.000000
vn -0.000001 0.000000 1.000000
vn 0.000000 0.000000 1.000000
vn 0.000000 0.000000 1.000000
vn 0.000000 1.000000 0.000000
vn 0.000000 1.000000 0.000000
vn 0.026507 0.999637 -0.004940
vn 0.035334 0.999376 0.000000
vn -0.000002 0.000000 -1.000000
vn -0.000002 0.000000 -1.000000
vn 0.000001 0.000000 -1.000000
vn 0.000001 0.000000 -1.000000
vn -0.000001 -1.000000 0.000000
vn -0.000001 -1.000000 0.000000
vn -0.000000 -1.000000 0.000000
vn -0.000000 -1.000000 0.000000
vn 1.000000 0.000000 0.000000
vn 1.000000 0.000000 0.000000
vn 0.999732 -0.023160 0.000000
vn 0.999732 -0.023160 0.000000
vn -1.000000 0.000000 0.000000
vn -1.000000 0.000000 0.000000
vn -0.999873 -0.015949 0.000241
vn -0.999872 -0.016001 0.000242
vn 0.000000 1.000000 0.000000
vn 0.017674 0.999795 -0.009882
vn 0.999732 -0.023160 0.000000
vn 1.000000 0.000000 0.000000
vn -0.000001 -1.000000 -0.000000
vn -0.000000 -1.000000 0.000000
vn -1.000000 0.000000 0.000000
vn -0.999875 -0.015842 0.000239
vn -1.000000 0.000000 0.000000
vn -1.000000 0.000000 0.000000
vn -1.000000 0.000001 0.000000
vn 0.000000 -0.000001 -1.000000
vn 0.000000 -0.000000 -1.000000
vn 0.000003 -0.000001 -1.000000
vn 0.000002 -0.000001 -1.000000
vn 1.000000 -0.000000 0.000000
vn 1.000000 0.000001 0.000000
vn 1.000000 -0.000001 0.000000
vn 0.000000 0.000000 1.000000
vn 0.000000 0.000000 1.000000
vn -0.000000 0.000000 1.000000
vn 0.000000 0.000000 1.000000
vn 0.000000 0.000000 1.000000
vn -0.006730 0.005485 0.999962
vn 0.000000 0.000000 1.000000
vn 0.000012 0.000000 1.000000
vn 0.999980 -0.001930 -0.006091
vn 0.999999 -0.000810 0.000842
vn 0.999970 0.000446 0.007771
vn -0.000000 0.000000 -1.000000
vn -0.000002 0.000000 -1.000000
vn -0.000010 0.000000 -1.000000
vn -0.000000 0.000000 -1.000000
vn -1.000000 0.000293 -0.000004
vn -1.000000 -0.000147 0.000060
vn -1.000000 0.000000 0.000114
vn 0.000000 -1.000000 0.000000
vn 0.000000 -1.000000 0.000000
vn 0.000001 -1.000000 0.000000
vn 0.000001 -1.000000 0.000000
vn 0.000000 -1.000000 0.000000
vn 0.000001 -1.000000 -0.000000
vn 0.000002 0.000000 -1.000000
vn 0.000000 0.000000 -1.000000
vn 0.000000 0.000000 -1.000000
vn -0.000007 0.000000 -1.000000
vn -0.000006 0.000000 -1.000000
vn -0.000006 0.000000 -1.000000
vn 0.000001 0.000000 -1.000000
vn 0.000001 0.000000 -1.000000
vn 0.000000 -0.000001 -1.000000
vn 0.000000 -0.000001 -1.000000
vn 0.000000 -0.000000 -1.000000
vn 0.000000 -0.000001 -1.000000
vn -0.052887 0.998601 0.000000
vn -0.052887 0.998601 0.000000
vn 0.000000 1.000000 0.000000
vn 0.000000 1.000000 0.000000
vn -0.052887 0.998601 0.000000
vn 0.000000 1.000000 0.000000
vn 0.000000 0.000000 1.000000
vn 0.000000 0.000000 1.000000
vn 0.000000 0.000000 1.000000
vn 0.000000 0.000000 1.000000
vn 0.000000 0.000000 1.000000
vn 0.000000 0.000000 1.000000
vn 0.000006 0.000000 1.000000
vn 0.000006 0.000000 1.000000
vn -0.000000 0.000000 1.000000
vn 0.000004 -0.000000 1.000000
vn 0.000007 0.000000 1.000000
vn -0.000000 0.000000 1.000000
vn 0.000000 -1.000000 0.000000
vn 0.000000 -1.000000 0.000000
vn -0.000000 0.000000 1.000000
vn -0.007097 0.005783 0.999958
vn -0.000000 0.000000 1.000000
vn 0.000000 0.000000 1.000000
vn 0.018415 0.999777 -0.010296
vn 0.027619 0.999605 -0.005146
vn 0.036813 0.999322 0.000000
vn 0.000000 -0.000000 -1.000000
vn 0.000000 -0.000001 -1.000000
vn -0.000000 0.000000 -1.000000
vn 0.000000 0.000000 -1.000000
vn 0.000000 -1.000000 0.000000
vn 0.000000 -1.000000 0.000000
vn 0.000000 -1.000000 0.000000
vn 0.000000 -1.000000 0.000000
vn 0.000000 0.000000 -1.000000
vn 0.000000 0.000000 -1.000000
vn 0.000000 -0.000000 -1.000000
vn 0.000000 -0.000001 -1.000000
vn -0.055146 0.998478 0.000000
vn -0.055146 0.998478 0.000000
vn -0.055146 0.998478 0.000000
vn 0.000000 0.000000 1.000000
vn 0.000000 0.000000 1.000000
vn -0.000000 0.000000 1.000000
vn -0.000000 0.000000 1.000000
vn -0.000000 -1.000000 0.000000
vn -0.000000 -1.000000 0.000000
vn -0.000000 0.000000 1.000000
vn -0.000000 0.000000 1.000000
vn -0.000000 0.000000 1.000000
vn -0.000000 0.000000 1.000000
vn 0.000000 0.000000 1.000000
vn 0.000000 0.000000 1.000000
vn 0.000000 1.000000 0.000000
vn 0.000000 1.000000 0.000000
vn 0.000000 1.000000 0.000000
vn 0.000000 -0.000001 -1.000000
vn 0.000000 -0.000001 -1.000000
vn -0.000000 0.000000 -1.000000
vn -0.000000 0.000000 -1.000000
vn 0.000000 0.000000 -1.000000
vn 0.000001 0.000000 -1.000000
vn -0.000000 -1.000000 -0.000000
vn 0.000000 -1.000000 -0.000000
vn 0.000000 -1.000000 -0.000000
vn 0.000000 -1.000000 0.000000
vn -0.000000 0.000000 -1.000000
vn -0.000001 0.000000 -1.000000
vn 0.000000 0.000000 -1.000000
vn 0.000000 0.000000 -1.000000
vn 0.000000 -0.000001 -1.000000
vn 0.000000 -0.000001 -1.000000
vn 0.000000 1.000000 0.000000
vn 0.000000 1.000000 0.000000
vn 0.000000 1.000000 0.000000
vn 0.000000 0.000000 1.000000
vn 0.000000 0.000000 1.000000
vn 0.000000 0.000000 1.000000
vn 0.000000 0.000000 1.000000
vn -0.000000 -0.000000 1.000000
vn -0.000001 0.000000 1.000000
vn -0.000000 -1.000000 0.000000
vn -0.000000 -1.000000 0.000000
vn -0.000000 -0.000000 1.000000
vn -0.000000 0.000000 1.000000
vn -0.000000 0.000000 1.000000
vn -0.000000 0.000000 1.000000
vn 0.000000 0.000000 1.000000
vn 0.000000 0.000000 1.000000
vn 0.000000 1.000000 0.000000
vn 0.000000 1.000000 0.000000
vn 0.000000 1.000000 0.000000
vn 0.000000 -0.000001 -1.000000
vn 0.000000 -0.000001 -1.000000
vn 0.000000 0.000000 -1.000000
vn 0.000000 0.000000 -1.000000
vn 0.000000 0.000000 -1.000000
vn 0.000001 0.000000 -1.000000
vn 0.000000 -1.000000 0.000000
vn -0.997721 0.067481 0.000013
vn -0.997721 -0.067481 0.000013
vn -0.997721 -0.067481 0.000013
vn -0.997721 0.067481 0.000013
vn -0.902219 -0.431279 0.000009
vn -0.902219 -0.431279 0.000009
vn -0.902219 0.431279 0.000009
vn -0.902219 0.431279 0.000009
vn 0.902219 -0.431278 0.000009
vn 0.997721 -0.067481 0.000013
vn 0.997721 -0.067481 0.000013
vn 0.902219 -0.431278 0.000009
vn 0.997721 0.067481 0.000013
vn 0.997721 0.067481 0.000013
vn 0.902219 0.431278 0.000009
vn 0.902219 0.431278 0.000009
vn 0.528599 -0.848872 0.000002
vn 0.528599 -0.848872 0.000002
vn 0.528599 -0.848872 0.000002
vn 0.528599 -0.848872 0.000002
vn 0.528599 0.848872 0.000002
vn 0.528599 0.848872 0.000002
vn 0.528599 0.848872 0.000002
vn 0.528599 0.848872 0.000002
vn -0.528598 -0.848873 0.000002
vn -0.528598 -0.848872 0.000002
vn -0.528598 -0.848872 0.000002
vn -0.528598 -0.848872 0.000002
vn -0.528598 0.848872 0.000002
vn -0.528598 0.848873 0.000002
vn -0.528598 0.848872 0.000002
vn -0.528598 0.848872 0.000002
vn 0.000000 -1.000000 0.000000
vn 0.000000 -1.000000 0.000000
vn 0.000000 -1.000000 0.000000
vn 0.000000 -1.000000 0.000000
vn 0.000000 1.000000 0.000000
vn 0.000000 1.000000 0.000000
vn 0.000000 1.000000 0.000000
vn 0.000000 1.000000 0.000000
vn 0.000000 -1.000000 0.000000
vn 0.000000 -1.000000 0.000000
vn 0.000000 1.000000 0.000000
vn 0.000000 1.000000 0.000000
vn -0.997714 -0.067573 0.000008
vn -0.997714 0.067573 0.000008
vn -0.997714 0.067573 0.000008
vn -0.997714 -0.067573 0.000008
vn -0.901991 0.431756 0.000004
vn -0.901991 0.431756 0.000004
vn -0.901989 -0.431760 0.000004
vn -0.901989 -0.431760 0.000004
vn 0.901990 0.431758 0.000004
vn 0.997714 0.067573 0.000008
vn 0.997714 0.067573 0.000008
vn 0.901990 0.431758 0.000004
vn 0.997714 -0.067574 0.000008
vn 0.997714 -0.067573 0.000008
vn 0.901988 -0.431762 0.000004
vn 0.901988 -0.431762 0.000004
vn 0.528416 0.848986 -0.000001
vn 0.528416 0.848986 -0.000001
vn 0.528416 0.848986 -0.000001
vn 0.528416 0.848986 -0.000001
vn 0.528422 -0.848982 -0.000001
vn 0.528422 -0.848982 -0.000001
vn 0.528422 -0.848982 -0.000001
vn 0.528422 -0.848982 -0.000001
vn -0.528414 0.848987 -0.000001
vn -0.528414 0.848987 -0.000001
vn -0.528414 0.848987 -0.000001
vn -0.528414 0.848987 -0.000001
vn -0.528421 -0.848983 -0.000001
vn -0.528421 -0.848983 -0.000001
vn -0.528421 -0.848983 -0.000001
vn -0.528421 -0.848983 -0.000001
vn 0.000000 1.000000 0.000000
vn 0.000000 1.000000 0.000000
vn 0.000000 1.000000 0.000000
vn 0.000000 1.000000 0.000000
vn 0.000000 -1.000000 0.000000
vn 0.000000 -1.000000 0.000000
vn 0.000000 -1.000000 0.000000
vn 0.000000 -1.000000 0.000000
vn 0.000000 1.000000 0.000000
vn 0.000000 1.000000 0.000000
vn 0.000000 -1.000000 0.000000
vn 0.000000 -1.000000 0.000000
vn -0.000000 -0.000000 1.000000
vn -0.000000 -0.000000 1.000000
vn 0.000004 -0.000000 1.000000
vn -0.000000 -0.000000 1.000000
vn -0.000000 -0.000000 1.000000
vn 0.000000 -0.000000 1.000000
vn 0.000000 -0.000000 1.000000
vn -0.011461 0.009340 0.999891
vn -0.011812 0.009625 0.999884
vn 0.999837 0.015013 -0.010072
vn 0.999852 0.017151 0.001401
vn 0.999730 0.019301 0.012949
vn 0.000000 0.000000 -1.000000
vn 0.000000 0.000000 -1.000000
vn 0.000000 0.000000 -1.000000
vn 0.000000 0.000000 -1.000000
vn -0.000000 0.000000 -1.000000
vn -0.000001 0.000000 -1.000000
vn 0.000003 0.000000 -1.000000
vn 0.000000 0.000000 -1.000000
vn 0.000000 0.000000 -1.000000
vn -0.999919 0.012708 -0.000192
vn -0.999921 0.012563 -0.000095
vn -0.999923 0.012422 0.000000
s 1
g pasted__pCube1 group
usemtl lambert3SG
f 95/137/1 96/138/2 97/139/3 98/140/4
s 2
usemtl lambert2SG
f 70/103/5 71/104/6 40/60/7 41/62/8
s 3
usemtl lambert3SG
f 109/141/9 110/142/10 111/143/11 112/144/12
s 4
usemtl lambert2SG
f 66/97/13 67/98/14 44/65/15 35/53/16
s 5
f 16/27/17 17/28/18 21/34/19 22/36/20
s 6
f 14/24/21 15/25/22 23/37/23 24/38/24
s 2
f 71/104/6 72/105/25 39/58/26 40/60/7
s 5
f 20/33/27 21/34/19 17/28/18 18/30/28
s 4
f 65/96/29 66/97/13 35/53/16 36/55/30
s 6
f 13/23/31 14/24/21 24/38/24 19/31/32
f 9/17/33 14/24/21 13/23/31 3/7/34
f 5/8/35 15/25/22 14/24/21 9/17/33
s 7
f 41/61/36 42/63/37 69/101/38 70/102/39
s 5
f 10/19/40 17/28/18 16/27/17 6/3/41
f 18/30/28 17/28/18 10/19/40 4/4/42
s 8
f 72/106/43 73/107/44 38/57/45 39/59/46
f 129/171/47 130/172/48 37/56/49 74/108/50
s 5
f 131/174/51 132/175/52 21/34/19 20/33/27
f 22/36/20 21/34/19 132/175/52 133/177/53
s 7
f 134/178/54 135/179/55 68/100/56 43/64/57
s 6
f 24/38/24 23/37/23 141/185/58 142/186/59
f 19/31/32 24/38/24 142/186/59 123/165/60
s 4
f 45/68/61 46/69/62 55/81/63 56/83/64
f 46/69/62 47/70/65 64/93/66 55/81/63
s 7
f 139/183/67 140/184/68 48/72/69 63/92/70
s 3
usemtl lambert3SG
f 113/148/71 114/145/72 115/146/73 116/147/74
s 7
usemtl lambert2SG
f 61/89/75 62/91/76 49/73/77 50/74/78
s 2
f 50/75/79 51/76/80 60/88/81 61/90/82
f 51/76/80 52/77/83 59/86/84 60/88/81
s 8
f 52/78/85 53/79/86 58/85/87 59/87/88
s 1
usemtl lambert3SG
f 99/152/89 100/149/90 101/150/91 102/151/92
s 8
usemtl lambert2SG
f 124/166/93 125/167/94 57/84/95 54/80/96
s 4
f 36/55/30 35/53/16 11/20/97 2/15/98
s 8
f 20/32/99 37/56/49 130/172/48 131/173/100
f 18/29/101 38/57/45 37/56/49 20/32/99
f 39/59/46 38/57/45 18/29/101 4/12/102
s 2
f 40/60/7 39/58/26 4/9/103 10/18/104
f 41/62/8 40/60/7 10/18/104 6/10/105
s 7
f 16/26/106 42/63/37 41/61/36 6/14/107
f 22/35/108 43/64/57 42/63/37 16/26/106
f 133/176/109 134/178/54 43/64/57 22/35/108
s 4
f 35/53/16 44/65/15 8/2/110 11/20/97
f 12/22/111 46/69/62 45/68/61 1/6/112
f 7/5/113 47/70/65 46/69/62 12/22/111
s 7
f 140/184/68 141/185/114 23/37/115 48/72/69
f 49/73/77 48/72/69 23/37/115 15/25/116
f 50/74/78 49/73/77 15/25/116 5/8/117
s 2
f 9/17/118 51/76/80 50/75/79 5/8/119
f 3/7/120 52/77/83 51/76/80 9/17/118
s 8
f 3/7/121 13/23/122 53/79/86 52/78/85
f 54/80/96 53/79/86 13/23/122 19/31/123
f 123/165/124 124/166/93 54/80/96 19/31/123
s 4
f 56/83/64 55/81/63 75/109/125 76/111/126
s 8
f 125/167/94 126/168/127 77/112/128 57/84/95
s 1
usemtl lambert3SG
f 103/154/129 104/153/130 100/149/90 99/152/89
s 8
usemtl lambert2SG
f 59/87/88 58/85/87 78/113/131 79/115/132
s 2
f 60/88/81 59/86/84 79/114/133 80/116/134
f 61/90/82 60/88/81 80/116/134 81/118/135
s 7
f 81/117/136 82/119/137 62/91/76 61/89/75
s 3
usemtl lambert3SG
f 117/156/138 118/155/139 114/145/72 113/148/71
s 7
usemtl lambert2SG
f 138/182/140 139/183/67 63/92/70 83/120/141
s 4
f 55/81/63 64/93/66 84/121/142 75/109/125
f 85/124/143 86/125/144 66/97/13 65/96/29
f 86/125/144 87/126/145 67/98/14 66/97/13
s 7
f 135/179/55 136/180/146 88/128/147 68/100/56
s 3
usemtl lambert3SG
f 112/144/12 111/143/11 119/157/148 120/158/149
s 7
usemtl lambert2SG
f 70/102/39 69/101/38 89/129/150 90/130/151
s 2
f 90/131/152 91/132/153 71/104/6 70/103/5
f 91/132/153 92/133/154 72/105/25 71/104/6
s 8
f 92/134/155 93/135/156 73/107/44 72/106/43
s 1
usemtl lambert3SG
f 98/140/4 97/139/3 105/159/157 106/160/158
s 8
usemtl lambert2SG
f 128/170/159 129/171/47 74/108/50 94/136/160
s 4
f 76/111/126 75/109/125 26/41/161 25/40/162
s 8
f 126/168/127 127/169/163 34/52/164 77/112/128
s 1
usemtl lambert3SG
f 108/162/165 107/161/166 104/153/130 103/154/129
s 8
usemtl lambert2SG
f 79/115/132 78/113/131 33/51/167 32/50/168
s 2
f 80/116/134 79/114/133 32/49/169 31/48/170
f 81/118/135 80/116/134 31/48/170 30/47/171
s 7
f 30/46/172 29/45/173 82/119/137 81/117/136
s 3
usemtl lambert3SG
f 122/164/174 121/163/175 118/155/139 117/156/138
s 7
usemtl lambert2SG
f 137/181/176 138/182/140 83/120/141 28/44/177
s 4
f 75/109/125 84/121/142 27/42/178 26/41/161
f 25/40/162 26/41/161 86/125/144 85/124/143
f 26/41/161 27/42/178 87/126/145 86/125/144
s 7
f 136/180/146 137/181/176 28/44/177 88/128/147
s 3
usemtl lambert3SG
f 120/158/149 119/157/148 121/163/175 122/164/174
s 7
usemtl lambert2SG
f 90/130/151 89/129/150 29/45/173 30/46/172
s 2
f 30/47/171 31/48/170 91/132/153 90/131/152
f 31/48/170 32/49/169 92/133/154 91/132/153
s 8
f 32/50/168 33/51/167 93/135/156 92/134/155
s 1
usemtl lambert3SG
f 106/160/158 105/159/157 107/161/166 108/162/165
s 8
usemtl lambert2SG
f 127/169/163 128/170/159 94/136/160 34/52/164
s 19
usemtl lambert3SG
f 37/56/179 38/57/180 96/138/181 95/137/182
f 38/57/180 73/107/183 97/139/184 96/138/181
f 74/108/185 37/56/179 95/137/182 98/140/186
s 20
f 58/63/187 53/64/188 101/142/189 100/141/190
f 53/64/188 54/100/191 102/143/192 101/142/189
f 54/101/191 57/63/193 99/141/194 102/144/192
s off
f 78/92/195 58/72/196 100/146/197 104/145/198
f 57/72/199 77/73/200 103/147/201 99/146/202
f 73/73/203 93/91/204 105/148/205 97/147/206
f 94/85/207 74/79/208 98/150/209 106/149/210
s 21
f 33/79/211 78/80/212 104/151/213 107/150/214
s 22
f 77/80/215 34/84/216 108/152/217 103/151/218
s 21
f 93/113/219 33/85/211 107/149/214 105/153/220
s 22
f 34/84/216 94/112/221 106/154/222 108/152/217
s 23
f 42/120/223 43/92/224 110/145/225 109/155/226
f 43/91/224 68/119/227 111/156/228 110/148/225
f 69/100/229 42/128/223 109/157/226 112/143/230
s 24
f 63/129/231 48/101/232 115/144/233 114/158/234
f 48/107/232 49/135/235 116/159/236 115/139/233
f 49/136/235 62/108/237 113/140/238 116/160/236
s off
f 83/51/239 63/113/240 114/153/241 118/161/242
f 62/112/243 82/52/244 117/162/245 113/154/246
f 68/44/247 88/120/248 119/155/249 111/163/250
f 89/119/251 69/45/252 112/164/253 120/156/254
s 25
f 28/128/255 83/44/256 118/163/257 121/157/258
s 26
f 82/45/259 29/129/260 122/158/261 117/164/262
s 25
f 88/135/263 28/51/255 121/161/258 119/159/264
s 26
f 29/52/260 89/136/265 120/160/266 122/162/261
s 8
usemtl lambert2SG
f 45/67/267 124/166/93 123/165/124 1/6/268
f 56/82/269 125/167/94 124/166/93 45/67/267
f 76/110/270 126/168/127 125/167/94 56/82/269
f 25/39/271 127/169/163 126/168/127 76/110/270
f 85/123/272 128/170/159 127/169/163 25/39/271
f 65/95/273 129/171/47 128/170/159 85/123/272
f 36/54/274 130/172/48 129/171/47 65/95/273
f 131/173/100 130/172/48 36/54/274 2/11/275
s 5
f 2/1/276 11/21/277 132/175/52 131/174/51
f 133/177/53 132/175/52 11/21/277 8/16/278
s 7
f 44/66/279 134/178/54 133/176/109 8/13/280
f 67/99/281 135/179/55 134/178/54 44/66/279
f 87/127/282 136/180/146 135/179/55 67/99/281
f 27/43/283 137/181/176 136/180/146 87/127/282
f 84/122/284 138/182/140 137/181/176 27/43/283
f 64/94/285 139/183/67 138/182/140 84/122/284
f 47/71/286 140/184/68 139/183/67 64/94/285
f 7/5/287 141/185/114 140/184/68 47/71/286
s 6
f 142/186/59 141/185/58 7/5/288 12/22/289
f 123/165/60 142/186/59 12/22/289 1/6/290
